<svg width="18" height="16" viewBox="0 0 18 16" fill="none" xmlns="http://www.w3.org/2000/svg">
<path d="M1.0517 6.96977C1.0517 6.96977 8.61267 3.68924 11.2297 2.53353C12.2367 2.07004 15.6445 0.589289 15.6445 0.589289C15.6445 0.589289 17.2148 -0.0607971 17.0839 1.51626C17.0384 2.16635 16.6914 4.42962 16.3386 6.87948C15.8152 10.3466 15.2463 14.1388 15.2463 14.1388C15.2463 14.1388 15.161 15.2042 14.4157 15.3848C13.6704 15.5714 12.4472 14.7347 12.231 14.5541C12.0546 14.4157 8.95402 12.333 7.81618 11.3157C7.50896 11.0388 7.16192 10.4851 7.86169 9.83497C9.43191 8.31208 11.315 6.41599 12.4472 5.21213C12.9706 4.65835 13.494 3.3642 11.3094 4.93524C8.20873 7.1985 5.14794 9.32934 5.14794 9.32934C5.14794 9.32934 4.44816 9.79283 3.13964 9.3775C1.83112 8.96216 0.300726 8.40839 0.300726 8.40839C0.300726 8.40839 -0.7404 7.71015 1.0517 6.96977Z" fill="#C2C2C2"/>
</svg>
