<svg width="17" height="14" viewBox="0 0 17 14" fill="none" xmlns="http://www.w3.org/2000/svg">
<path d="M16.4079 2.11561C15.8838 2.33731 15.3084 2.47226 14.7535 2.55901C15.0206 2.52045 15.4111 2.06741 15.5652 1.88427C15.8016 1.60473 16.0071 1.28664 16.1201 0.939628C16.1304 0.910711 16.1407 0.881793 16.1201 0.862515C16.0893 0.852876 16.0585 0.852876 16.0277 0.872154C15.4008 1.18061 14.7535 1.41195 14.065 1.57581C14.0033 1.58545 13.9622 1.57581 13.9314 1.5469C13.8698 1.48906 13.8184 1.43123 13.7567 1.38303C13.469 1.15169 13.1607 0.968546 12.8011 0.833598C12.3387 0.660092 11.8352 0.582979 11.3419 0.611897C10.859 0.640814 10.3863 0.766123 9.95472 0.978185C9.52314 1.19025 9.14294 1.47942 8.83467 1.83607C8.5264 2.19272 8.29005 2.62648 8.17702 3.08916C8.06399 3.53256 8.07426 3.96633 8.14619 4.40973C8.15647 4.48684 8.14619 4.49648 8.07426 4.48684C5.37176 4.10128 3.13165 3.20483 1.31286 1.25772C1.24093 1.17097 1.19982 1.17097 1.12789 1.26736C0.336665 2.3855 0.716866 4.17839 1.71361 5.06519C1.84719 5.18086 1.98078 5.29653 2.12464 5.4122C2.07326 5.4122 1.41561 5.34473 0.829898 5.05555C0.747693 5.017 0.70659 5.03627 0.70659 5.12303C0.696314 5.24834 0.70659 5.35437 0.727141 5.48932C0.881277 6.6171 1.71361 7.66777 2.86449 8.08225C2.99807 8.14009 3.15221 8.17864 3.29607 8.20756C3.0289 8.25576 2.76173 8.29431 2.0116 8.23648C1.91912 8.2172 1.8883 8.2654 1.91912 8.35215C2.48429 9.78839 3.69682 10.2221 4.60108 10.4631C4.72439 10.4824 4.8477 10.4824 4.971 10.5113C4.96073 10.521 4.96073 10.521 4.95045 10.5306C4.65246 10.9644 3.60434 11.2825 3.12138 11.4463C2.23767 11.7355 1.27175 11.8704 0.336665 11.7837C0.182529 11.7644 0.151702 11.7644 0.1106 11.7837C0.0694968 11.803 0.100324 11.8415 0.151702 11.8801C0.336665 11.9958 0.531903 12.1018 0.727141 12.1982C1.32313 12.497 1.93967 12.7283 2.58704 12.8922C5.93692 13.7597 9.69782 13.1235 12.2154 10.7812C14.1883 8.94014 14.8768 6.40504 14.8768 3.86994C14.8768 3.77354 15.0001 3.71571 15.072 3.66751C15.5858 3.30122 15.9968 2.8771 16.377 2.3855C16.4592 2.27947 16.4592 2.18308 16.4592 2.14452C16.4592 2.13489 16.4592 2.13489 16.4592 2.13489C16.4798 2.07705 16.4798 2.08669 16.4079 2.11561Z" fill="#C2C2C2"/>
</svg>
