<svg width="19" height="18" viewBox="0 0 19 18" fill="none" xmlns="http://www.w3.org/2000/svg">
<path d="M0.471191 17.8686L1.75655 13.0861C1.02958 11.7827 0.650298 10.3112 0.650298 8.82917C0.650298 3.96261 4.62226 0 9.50029 0C14.3783 0 18.3503 3.96261 18.3503 8.82917C18.3503 13.6957 14.3783 17.6583 9.50029 17.6583C8.03582 17.6583 6.59243 17.2904 5.29654 16.5862L0.471191 17.8686ZM5.52833 14.7889L5.83386 14.9675C6.95065 15.6297 8.21493 15.9766 9.50029 15.9766C13.4617 15.9766 16.6751 12.7602 16.6751 8.81866C16.6751 4.87706 13.4512 1.66072 9.50029 1.66072C5.53886 1.66072 2.32547 4.87706 2.32547 8.81866C2.32547 10.122 2.68369 11.4043 3.37905 12.529L3.56869 12.8338L2.85226 15.5036L5.52833 14.7889Z" fill="#C2C2C2"/>
<path fill-rule="evenodd" clip-rule="evenodd" d="M12.7871 10.0587C12.4183 9.83798 11.9442 9.59623 11.5228 9.77491C11.1962 9.91156 10.9855 10.4266 10.7748 10.6894C10.6694 10.826 10.5324 10.847 10.3639 10.7734C9.12066 10.2794 8.17245 9.45959 7.49816 8.32441C7.38227 8.14572 7.40334 8.00908 7.5403 7.84091C7.75102 7.59915 8.00387 7.32587 8.05655 7.00003C8.10923 6.67419 7.96173 6.2958 7.82477 6.0015C7.6562 5.63361 7.45602 5.09756 7.08727 4.88734C6.73959 4.69814 6.29709 4.80325 5.99156 5.05551C5.46477 5.48646 5.21191 6.14865 5.21191 6.82135C5.21191 7.01054 5.23299 7.19974 5.28566 7.37843C5.39102 7.81988 5.5912 8.22981 5.82298 8.61871C5.99156 8.91302 6.1812 9.19681 6.38138 9.4701C7.04513 10.3635 7.86691 11.1413 8.81512 11.7299C9.28923 12.0242 9.80548 12.2765 10.3323 12.4552C10.9223 12.6549 11.4596 12.8546 12.1023 12.7285C12.7765 12.6023 13.4403 12.1819 13.7037 11.5407C13.7774 11.3515 13.8196 11.1308 13.7774 10.9311C13.6932 10.5107 13.1242 10.2584 12.7871 10.0587Z" fill="#C2C2C2"/>
</svg>
